{"title":"Yeh  Jo hai Zindagi Season 2 episode25","uid":7443752,"size":236837036,"categoryP":"video","categoryS":"tv_shows","magnet":"?xt=urn:btih:ab956feb622490e0a5a833c4fd18512e45f9d420&amp;dn=Yeh++Jo+hai+Zindagi+Season+2+episode25+&amp;tr=udp%3A%2F%2Ftracker.openbittorrent.com%3A80&amp;tr=udp%3A%2F%2Fopen.demonii.com%3A1337&amp;tr=udp%3A%2F%2Ftracker.coppersurfer.tk%3A6969&amp;tr=udp%3A%2F%2Fexodus.desync.com%3A6969","seeders":0,"leechers":1,"uploader":"djsunny1986","files":1,"time":1342297453,"description":"Yeh  Jo hai Zindagi Season 2 episode25 \n\nJumru.DAT\n\nFormat                                   : CDXA/MPEG-PS\nFile size                                : 226 MiB\nDuration                                 : 22mn 21s\nOverall bit rate                         : 1 413 Kbps\n\nVideo\nID                                       : 224 (0xE0)\nFormat                                   : MPEG Video\nFormat version                           : Version 1\nFormat settings, BVOP                    : Yes\nFormat settings, Matrix                  : Custom\nDuration                                 : 22mn 21s\nBit rate                                 : 1 160 Kbps\nMaximum bit rate                         : 1 120 Kbps\nWidth                                    : 352 pixels\nHeight                                   : 288 pixels\nDisplay aspect ratio                     : 4:3\nFrame rate                               : 25.000 fps\nStandard                                 : PAL\nColor space                              : YUV\nBit depth                                : 8 bits\nScan type                                : Progressive\nCompression mode                         : Lossy\nBits/(Pixel*Frame)                       : 0.458\nStream size                              : 186 MiB (82%)\n\nAudio\nID                                       : 192 (0xC0)\nFormat                                   : MPEG Audio\nFormat version                           : Version 1\nFormat profile                           : Layer 2\nDuration                                 : 22mn 21s\nBit rate mode                            : Constant\nBit rate                                 : 224 Kbps\nChannel(s)                               : 2 channels\nSampling rate                            : 44.1 KHz\nCompression mode                         : Lossy\nStream size                              : 35.8 MiB (16%)\n\nScreens: &lt;a href=&quot;\nhttp://i.minus.com/iTNvvEbYbrHD9.jpg&quot; rel=&quot;nofollow&quot; target=&quot;_NEW&quot;&gt;\nhttp://i.minus.com/iTNvvEbYbrHD9.jpg&lt;/a&gt; &lt;a href=&quot;\nhttp://i.minus.com/iGjVoqOk2I1gh.jpg&quot; rel=&quot;nofollow&quot; target=&quot;_NEW&quot;&gt;\nhttp://i.minus.com/iGjVoqOk2I1gh.jpg&lt;/a&gt; &lt;a href=&quot;\nhttp://i.minus.com/ibQLQgZYK1P2S.jpg&quot; rel=&quot;nofollow&quot; target=&quot;_NEW&quot;&gt;\nhttp://i.minus.com/ibQLQgZYK1P2S.jpg&lt;/a&gt; &lt;a href=&quot;\nhttp://i.minus.com/izT0VRvITV38b.jpg&quot; rel=&quot;nofollow&quot; target=&quot;_NEW&quot;&gt;\nhttp://i.minus.com/izT0VRvITV38b.jpg&lt;/a&gt; &lt;a href=&quot;\nhttp://i.minus.com/iY5TWaxG5sXVo.jpg&quot; rel=&quot;nofollow&quot; target=&quot;_NEW&quot;&gt;\nhttp://i.minus.com/iY5TWaxG5sXVo.jpg&lt;/a&gt;\n\nseed amd enjoy..\nplease maintain ratio to support this torrent","torrent":{"xt":"urn:btih:ab956feb622490e0a5a833c4fd18512e45f9d420","amp;dn":"Yeh++Jo+hai+Zindagi+Season+2+episode25+","amp;tr":["udp%3A%2F%2Ftracker.openbittorrent.com%3A80","udp%3A%2F%2Fopen.demonii.com%3A1337","udp%3A%2F%2Ftracker.coppersurfer.tk%3A6969","udp%3A%2F%2Fexodus.desync.com%3A6969"],"infoHash":"ab956feb622490e0a5a833c4fd18512e45f9d420","infoHashBuffer":{"type":"Buffer","data":[171,149,111,235,98,36,144,224,165,168,51,196,253,24,81,46,69,249,212,32]},"announce":[],"urlList":[]}}